<svg width="125" height="66" viewBox="0 0 125 66" fill="none" xmlns="http://www.w3.org/2000/svg">
<path d="M71.8945 63.193C71.9172 62.8397 71.9399 62.3041 71.9399 61.8368V55.5117H72.8819V58.7939H72.9046C73.2337 58.2127 73.8465 57.8366 74.6863 57.8366C75.9801 57.8366 76.8994 58.9193 76.888 60.5034C76.888 62.3724 75.7191 63.307 74.5502 63.307C73.8011 63.307 73.1883 63.0106 72.8024 62.3269H72.7684L72.723 63.193H71.8945ZM72.8705 61.096C72.8705 61.21 72.8932 61.3353 72.9159 61.4379C73.0975 62.0989 73.6536 62.5548 74.3345 62.5548C75.3219 62.5548 75.912 61.7456 75.912 60.549C75.912 59.5005 75.3786 58.6002 74.3572 58.6002C73.7103 58.6002 73.1089 59.0446 72.9159 59.7626C72.8932 59.8652 72.8592 60.002 72.8592 60.1501V61.096H72.8705Z" fill="#999999"/>
<path d="M77.9318 57.9509L79.078 61.0393C79.1915 61.3812 79.3277 61.7915 79.4071 62.1106H79.4298C79.532 61.7915 79.6341 61.3926 79.759 61.0165L80.7917 57.9509H81.7904L80.3718 61.6775C79.6909 63.4782 79.2256 64.3899 78.5787 64.9483C78.1134 65.3586 77.6481 65.5181 77.4211 65.5637L77.1828 64.766C77.4211 64.6862 77.7275 64.5381 78.0112 64.2987C78.2723 64.0936 78.59 63.7289 78.8057 63.2388C78.851 63.1363 78.8851 63.0679 78.8851 63.0109C78.8851 62.9539 78.8624 62.8856 78.817 62.7602L76.8877 57.9395H77.9318V57.9509Z" fill="#999999"/>
<path d="M84.605 59.4907C84.605 58.8867 84.5823 58.3739 84.5596 57.918H85.6945L85.7626 58.693H85.7966C86.0463 58.2827 86.5229 57.7926 87.4081 57.7926C88.1004 57.7926 88.6338 58.1801 88.8608 58.7614H88.8835C89.0651 58.465 89.2807 58.2485 89.519 58.1004C89.8254 57.8952 90.1546 57.7812 90.5972 57.7812C91.4597 57.7812 92.3449 58.3739 92.3449 60.0606V63.1604H91.0511V60.2543C91.0511 59.3768 90.7447 58.8639 90.1092 58.8639C89.6552 58.8639 89.3261 59.183 89.1786 59.5705C89.1332 59.6845 89.1105 59.8668 89.1105 60.015V63.1718H87.8167V60.1175C87.8167 59.3768 87.5216 58.8639 86.9088 58.8639C86.4094 58.8639 86.0803 59.2514 85.9555 59.6047C85.9101 59.7415 85.8874 59.901 85.8874 60.0492V63.1604H84.5936V59.4907H84.605Z" fill="#999999"/>
<path d="M97.4511 61.928C97.4511 62.4066 97.4738 62.8739 97.5419 63.193H96.3502L96.2481 62.6118H96.214C95.8963 63.022 95.3515 63.3183 94.6593 63.3183C93.6038 63.3183 93.0137 62.5548 93.0137 61.7456C93.0137 60.4236 94.1826 59.7398 96.1233 59.7512V59.66C96.1233 59.3182 95.9871 58.7369 95.0565 58.7369C94.5344 58.7369 94.001 58.8965 93.6492 59.1244L93.3882 58.2583C93.774 58.0189 94.455 57.791 95.2834 57.791C96.9631 57.791 97.4511 58.8623 97.4511 60.0133V61.928ZM96.1573 60.6174C95.2153 60.606 94.3301 60.7997 94.3301 61.5975C94.3301 62.1217 94.6593 62.3496 95.0792 62.3496C95.6126 62.3496 95.9984 62.0077 96.1233 61.6203C96.1573 61.5177 96.1573 61.4265 96.1573 61.3239V60.6174Z" fill="#999999"/>
<path d="M98.4731 59.4891C98.4731 58.8851 98.4504 58.3722 98.4277 57.9164H99.5853L99.6534 58.7027H99.6875C99.9258 58.2925 100.493 57.791 101.367 57.791C102.286 57.791 103.228 58.3836 103.228 60.0475V63.1702H101.9V60.1957C101.9 59.4435 101.617 58.8623 100.902 58.8623C100.38 58.8623 100.005 59.2384 99.869 59.6373C99.8236 59.7398 99.801 59.9108 99.801 60.0589V63.1588H98.4731V59.4891Z" fill="#999999"/>
<path d="M109.13 55.5117V61.7114C109.13 62.2471 109.152 62.8397 109.175 63.193H108.006L107.938 62.361H107.915C107.598 62.9423 106.973 63.3069 106.213 63.3069C104.953 63.3069 103.966 62.2357 103.966 60.6174C103.955 58.8509 105.055 57.8024 106.315 57.8024C107.041 57.8024 107.552 58.0987 107.79 58.4862H107.813V55.5117H109.13ZM107.802 60.1159C107.802 60.0133 107.79 59.8652 107.768 59.7626C107.654 59.2498 107.234 58.8281 106.622 58.8281C105.77 58.8281 105.294 59.5803 105.294 60.5604C105.294 61.5405 105.77 62.2357 106.61 62.2357C107.144 62.2357 107.62 61.871 107.756 61.2898C107.79 61.1758 107.802 61.039 107.802 60.9023V60.1159Z" fill="#999999"/>
<path d="M111.603 56.4559C111.603 56.8434 111.308 57.1739 110.854 57.1739C110.411 57.1739 110.116 56.8548 110.116 56.4559C110.116 56.0457 110.423 55.7266 110.854 55.7266C111.319 55.7266 111.592 56.0343 111.603 56.4559ZM110.196 63.1913V57.9261H111.523V63.1913H110.196Z" fill="#999999"/>
<path d="M112.58 59.6145C112.58 58.8965 112.568 58.3836 112.534 57.9164H113.68L113.737 58.9079H113.771C114.032 58.1671 114.645 57.791 115.213 57.791C115.337 57.791 115.417 57.8024 115.53 57.8252V59.0674C115.417 59.0446 115.292 59.0332 115.133 59.0332C114.509 59.0332 114.066 59.4321 113.953 60.0361C113.93 60.1501 113.919 60.2983 113.919 60.435V63.1702H112.58V59.6145Z" fill="#999999"/>
<path d="M117.46 56.4559C117.46 56.8434 117.165 57.1739 116.711 57.1739C116.269 57.1739 115.974 56.8548 115.974 56.4559C115.974 56.0457 116.28 55.7266 116.711 55.7266C117.177 55.7266 117.449 56.0343 117.46 56.4559ZM116.053 63.1913V57.9261H117.381V63.1913H116.053Z" fill="#999999"/>
<path d="M27.5557 17.7786C27.2833 17.1518 26.9201 16.582 26.4775 16.0463C26.0349 15.5221 25.5356 15.0776 24.9908 14.7243C24.4461 14.371 23.9013 14.2001 23.3566 14.2001C22.3012 14.2001 21.4046 14.4394 20.6442 14.9067C19.8838 15.3739 19.1575 15.9324 18.4539 16.5706C17.7503 17.2202 17.058 17.847 16.3884 18.4738C15.7075 19.1006 14.9357 19.5679 14.0846 19.8756C15.1741 17.1062 15.9685 14.2799 16.4792 11.4079C16.9785 8.53601 16.6835 7.54451 16.8764 4.6156C16.8424 4.80934 16.797 5.06006 16.7629 5.37917C16.7289 5.68687 16.6948 6.01737 16.6721 6.34787C16.6494 6.67837 16.6154 6.99748 16.5586 7.28239C16.5019 7.5787 16.4565 7.78384 16.4111 7.8978L16.3544 7.84082C16.3884 7.80663 16.4338 7.5901 16.4678 7.19122C16.5019 6.80373 16.5586 6.37067 16.6154 5.90341C16.6721 5.43615 16.7175 4.99168 16.7629 4.55862C16.797 4.12555 16.8197 3.84063 16.8197 3.68108C16.8197 3.09986 16.7175 2.57562 16.5246 2.13115C16.3317 1.68669 16.0366 1.24222 15.6507 0.809154L14.7769 0.512844L14.3683 1.21943L14.0165 1.45876L14.13 0.467258L14.3002 0.170948L14.1413 0C13.676 0.0341896 13.1199 0.581223 12.4844 1.6411C11.8375 2.70098 11.1566 4.10275 10.4189 5.85782C9.68122 7.61289 9.57908 7.71546 8.81871 9.98337C8.05834 12.2513 7.32066 14.599 6.60568 17.0378C5.89071 19.4767 5.19843 21.9155 4.54019 24.3658C3.85926 26.8047 3.29182 29.0726 2.82651 31.1581C2.36121 33.2437 1.97535 35.0785 1.69163 36.6399C1.39656 38.2012 1.24902 39.3295 1.24902 40.036C1.24902 40.3096 1.27172 40.5261 1.30577 40.6856H1.60084C1.63488 40.6059 1.70298 40.4691 1.77107 40.2754C1.85051 40.0816 1.92995 39.8651 2.0094 39.6258C2.08884 39.3864 2.14558 39.1813 2.17963 38.9762C2.21368 38.7824 2.21368 38.6685 2.17963 38.6229C2.25907 38.2354 2.36121 37.8479 2.4974 37.4832C2.63358 37.1185 2.75842 36.731 2.87191 36.3436C2.79247 36.2638 2.75842 36.1042 2.75842 35.8763C2.75842 35.5686 2.81517 35.2267 2.92865 34.8848L2.9854 34.8278C2.95135 34.8278 2.92865 34.8848 2.92865 34.9988V35.9903C3.50745 33.9161 4.09759 31.8761 4.67638 29.8361C5.25517 27.8076 5.92475 25.779 6.66243 23.739C6.23117 25.3003 5.78857 26.8502 5.32326 28.4002C4.85796 29.9387 4.40401 31.5114 3.9841 33.1183C3.67768 34.3264 3.40531 35.5458 3.20103 36.7766C2.9854 38.0075 2.69033 39.2041 2.29312 40.3779L2.34986 41.2555H2.5201C2.71303 41.2555 2.82651 41.1415 2.87191 40.9022C2.90596 40.6629 2.95135 40.4691 2.9854 40.321L3.22372 40.264L3.46205 40.5603V40.9706C3.81386 40.5831 4.17703 40.207 4.57424 39.8537L4.40401 40.7312C4.51749 40.6173 4.72177 40.4235 5.01684 40.15C5.31191 39.8765 5.59564 39.5916 5.89071 39.2953C6.18578 38.999 6.4468 38.7254 6.67378 38.4405C6.9121 38.167 7.04829 37.9733 7.08234 37.8593C6.88941 37.8593 6.70782 37.8251 6.56029 37.7453C6.79861 37.5858 7.03694 37.449 7.28661 37.3351C7.53629 37.2211 7.68382 37.0046 7.72922 36.6855C7.8881 36.6513 8.02429 36.5031 8.13778 36.241C8.22857 36.0359 8.30801 35.8991 8.37611 35.7737C8.36476 35.6484 8.3988 35.5344 8.4669 35.4546C8.50094 35.409 8.54634 35.3635 8.60308 35.3293C8.65983 35.0444 8.70522 34.7594 8.76197 34.4745C8.79601 34.2922 8.9095 34.201 9.04569 34.1668C9.29536 33.9959 9.74932 34.1098 9.79471 34.5201C9.80606 34.6341 9.80606 34.7481 9.81741 34.8506C9.82876 34.8734 9.85146 34.8962 9.85146 34.919C10.3735 36.7994 10.5551 38.6913 11.3155 40.5033C11.5424 41.0503 11.7921 41.586 12.0418 42.1102C13.3242 44.2528 14.9244 46.1902 16.8651 47.8769C18.3744 48.5493 19.8838 48.8912 21.3932 48.8912C21.45 48.8912 21.4954 48.8798 21.5521 48.8684C20.3491 47.5008 19.3731 45.9053 18.9873 44.2072C18.9305 44.1616 18.8851 44.116 18.8284 44.0818L18.8851 43.7855C18.6922 43.2385 18.5106 42.7028 18.3631 42.1786C18.2042 41.6544 18.0567 41.1187 17.8978 40.5717C17.8184 40.5375 17.6822 40.4121 17.4892 40.2184C17.2963 40.0246 17.2963 39.8879 17.4892 39.8081C17.4098 39.6144 17.319 39.2497 17.1942 38.7254C17.0807 38.2012 16.9445 37.6428 16.7856 37.0502C16.6267 36.4689 16.4792 35.9333 16.343 35.4432C16.2068 34.9532 16.1047 34.6683 16.0252 34.5885C15.9912 34.3948 15.9571 34.2238 15.9344 34.0871C15.9117 33.9503 15.9231 33.7793 15.9685 33.5856C15.889 33.4716 15.821 33.2665 15.7642 32.9702C15.7075 32.6739 15.6507 32.3662 15.594 32.0357C15.5372 31.7052 15.4918 31.3861 15.4464 31.067C15.4124 30.7593 15.3897 30.5199 15.3897 30.3604C15.3897 30.1666 15.5826 30.0641 15.9685 30.0641H16.7856C17.058 30.0641 17.4098 30.0299 17.8411 29.9501C18.2723 29.8703 18.6922 29.7564 19.1008 29.5968C19.5093 29.4373 19.8952 29.2777 20.2697 29.0954C20.6442 28.9244 20.9166 28.7193 21.1209 28.48C21.3932 28.366 21.8472 28.1039 22.4941 27.7164C23.141 27.3289 23.7765 26.8844 24.4234 26.3944C25.0703 25.9043 25.6264 25.4257 26.1144 24.9584C26.6024 24.4912 26.8407 24.1037 26.8407 23.7846H26.784C26.5456 23.9783 26.2165 24.2974 25.7966 24.7533C25.3653 25.1978 24.9114 25.6536 24.4234 26.0981C23.9354 26.5425 23.4701 26.9528 23.0275 27.2947C22.5849 27.648 22.2444 27.819 22.0061 27.819L22.0628 27.648C23.4247 26.7933 24.6277 25.722 25.6831 24.457C26.7386 23.192 27.4535 21.7332 27.8394 20.0921C27.9188 20.0123 27.9642 19.9098 27.9869 19.773C28.0096 19.6362 28.021 19.5109 28.021 19.3969C27.9642 18.9638 27.828 18.4054 27.5557 17.7786ZM4.81256 28.5483C4.73312 28.9814 4.59694 29.2891 4.40401 29.4829C4.48345 29.1296 4.57424 28.7877 4.69908 28.4572C4.81256 28.1267 4.9374 27.8076 5.05089 27.4885C4.9601 27.7734 4.88066 28.1267 4.81256 28.5483ZM7.86541 27.9329C7.49089 29.1637 7.01424 30.349 6.43545 31.4772C6.78727 30.2236 7.17313 29.0042 7.60438 27.819C8.03564 26.6337 8.47825 25.4257 8.94355 24.2176C8.60308 25.4713 8.23992 26.7021 7.86541 27.9329ZM14.5158 21.1748C15.1173 20.434 15.7756 19.716 16.5019 19.0094C17.2169 18.3028 17.9432 17.6874 18.6582 17.1632C19.3731 16.6389 19.986 16.3768 20.4967 16.3768C20.4626 16.4566 20.2924 16.582 19.9973 16.7529C19.7023 16.9239 19.5207 17.0606 19.4412 17.129C18.2723 17.9496 17.2169 18.8727 16.2636 19.9098C15.3103 20.9468 14.3116 21.9497 13.2561 22.9298C13.4944 22.4968 13.9143 21.9155 14.5158 21.1748ZM15.0719 22.5196C14.9925 22.6791 14.8336 22.8729 14.6066 23.1008L14.7201 22.8045L15.0719 22.5196ZM13.154 20.8785C13.154 20.7645 13.2221 20.4682 13.3583 20.0009C13.4944 19.5337 13.5966 19.2602 13.676 19.1804C13.5625 19.8414 13.381 20.4682 13.154 21.0608V20.8785ZM13.4717 24.7761C13.3356 24.947 13.2448 25.0382 13.2107 25.0382L14.4931 23.2261C14.4591 23.3059 14.3797 23.4427 14.2548 23.6364C14.1413 23.8302 14.0165 24.0239 13.8803 24.2176C13.7441 24.4114 13.6079 24.5937 13.4717 24.7761ZM14.8109 24.7419C15.2535 24.1607 15.7415 23.5566 16.2636 22.9298C16.7856 22.303 17.285 21.7446 17.7503 21.2318C18.2156 20.7303 18.4879 20.4682 18.5674 20.4682V20.5252C17.7162 21.3457 16.9672 22.246 16.3203 23.2148C15.6734 24.1949 14.9244 25.0724 14.0732 25.8474C14.1186 25.6992 14.3683 25.3345 14.8109 24.7419ZM17.6368 25.5396C16.7856 26.0639 15.9117 26.326 15.0152 26.326L14.9017 26.212L15.1968 25.4485L14.3229 26.383C14.4364 26.0297 14.7769 25.5055 15.3443 24.7989C15.9117 24.0923 16.5246 23.3857 17.1828 22.6563C17.8411 21.9383 18.4993 21.2659 19.1689 20.6619C19.8271 20.0579 20.3378 19.6704 20.6896 19.5223C19.8384 20.4226 18.9646 21.2773 18.0907 22.0979C17.319 22.8159 16.6154 23.6136 15.9458 24.457C16.2295 24.1379 16.604 23.7162 17.092 23.2148C17.773 22.5082 18.4993 21.8244 19.2824 21.1634C20.0654 20.5024 20.8258 19.8984 21.5862 19.3741C22.3465 18.8499 22.9594 18.5878 23.4247 18.5878L23.5949 18.7017C23.2091 19.4083 22.7097 20.1947 22.1082 21.0722C21.5067 21.9497 20.8258 22.7817 20.0654 23.5566C19.3051 24.3544 18.4993 25.004 17.6368 25.5396ZM21.7564 23.4313C21.8585 23.2945 21.9947 23.2034 22.199 23.1692V23.2261C21.8926 23.7732 21.3705 24.3544 20.6556 24.9812C19.9406 25.608 19.2597 26.0183 18.6468 26.212L18.5901 26.1551C19.4072 25.4941 20.1789 24.7875 20.8939 24.0467C21.6089 23.3059 22.3465 22.5424 23.0842 21.756C22.8459 22.1093 22.5735 22.4398 22.2671 22.7475C21.9607 23.0552 21.6656 23.3971 21.3932 23.739C21.5294 23.6706 21.6543 23.568 21.7564 23.4313ZM22.8345 24.514C23.1864 24.1607 23.402 23.9099 23.4814 23.7504L23.7765 23.6934C23.5836 24.0011 23.3566 24.2746 23.1069 24.514C22.8572 24.7533 22.5962 24.9812 22.3238 25.2205C22.3125 25.0952 22.4827 24.8673 22.8345 24.514ZM22.7778 26.383C23.2431 26.0297 23.663 25.6536 24.0262 25.2433C24.4007 24.8331 24.8319 24.4684 25.3426 24.1607C24.639 25.061 23.7879 25.8018 22.7778 26.383Z" fill="#003976"/>
<path d="M0.113489 40.8125H0.0567446L0 40.9265L0.113489 41.1088V40.8125Z" fill="#003976"/>
<path d="M1.28227 36.5371C1.20283 36.6169 1.15743 36.7081 1.13474 36.8334C1.11204 36.9474 1.08934 37.05 1.04395 37.1297L1.15743 37.0727L1.28227 36.5371Z" fill="#003976"/>
<path d="M3.26793 45.2676L3.02961 45.3813L2.85938 45.6771L2.91612 45.734L3.26793 45.2676Z" fill="#003976"/>
<path d="M8.69351 29.0391L8.58002 29.096L8.39844 29.6887L8.51193 29.6203L8.69351 29.0391Z" fill="#003976"/>
<path d="M9.10171 30.918C9.06766 30.918 8.96552 31.0772 8.80664 31.3844L9.10171 30.918Z" fill="#003976"/>
<path d="M10.7921 24.8789C10.758 24.9587 10.7354 25.0726 10.7354 25.2322L10.7921 24.8789Z" fill="#003976"/>
<path d="M10.963 24.1719C10.9289 24.2517 10.9062 24.3656 10.9062 24.5252L10.963 24.1719Z" fill="#003976"/>
<path d="M11.1445 23.4199L11.2013 23.7048V23.4769L11.1445 23.4199Z" fill="#003976"/>
<path d="M11.3145 22.7129C11.3145 22.8724 11.3372 22.9636 11.3712 23.0092L11.3145 22.7129Z" fill="#003976"/>
<path d="M14.6056 17.7773C14.5715 17.8571 14.5488 17.9711 14.5488 18.1306L14.6056 17.7773Z" fill="#003976"/>
<path d="M19.3041 33.4942L19.0771 33.4375L18.8955 33.6077L19.0771 33.6645L19.3041 33.4942Z" fill="#003976"/>
<path d="M30.8468 48.1964C29.7232 48.1964 28.6905 47.9229 27.7599 47.3758C26.8293 46.8288 26.0122 46.1336 25.3426 45.3017C24.6616 44.4583 24.1396 43.5124 23.7651 42.4639C23.3906 41.404 23.209 40.3556 23.209 39.2957C23.209 37.495 23.5721 35.4778 24.3212 33.2327C25.0588 30.9876 26.0802 28.8792 27.3854 26.9076C28.6905 24.936 30.2112 23.2721 31.9703 21.9273C33.718 20.5826 35.6246 19.9102 37.6901 19.9102C39.6762 19.9102 41.5033 20.4458 43.1716 21.5171C44.8399 22.5883 46.0656 24.0699 46.8486 25.9389L46.7352 26.3492C46.8486 26.4632 46.9054 26.6797 46.9054 26.9988C46.9054 27.7852 46.8033 28.5715 46.6103 29.3693C46.4174 30.167 46.3153 30.9648 46.3153 31.7398V31.8537L46.4855 31.7968L46.599 31.5004C46.599 31.5346 46.6103 31.5802 46.6217 31.6144C46.6444 31.6486 46.6557 31.6942 46.6557 31.7284C46.6557 32.2754 46.5649 32.8794 46.3947 33.5404C46.2245 34.2014 46.0315 34.8054 45.8386 35.3525C45.2939 36.8796 44.5335 38.3953 43.5688 39.9225C42.5928 41.4496 41.4466 42.8172 40.1301 44.048C38.8023 45.2789 37.361 46.2704 35.7835 47.0339C34.1947 47.8089 32.5491 48.1964 30.8468 48.1964ZM32.708 23.5912C32.4356 24.0585 32.0838 24.4802 31.6639 24.8563C31.2326 25.2323 30.7673 25.6426 30.268 26.1213C29.7573 26.5885 29.2806 27.147 28.804 27.7966C28.3387 28.4462 27.9528 29.2895 27.635 30.3494C27.7939 30.2354 27.9188 30.1101 28.0096 29.9733C28.1117 29.8365 28.1911 29.6884 28.2706 29.5288C29.0083 28.4006 29.814 27.3521 30.6879 26.3948C31.5617 25.4375 32.447 24.4688 33.3435 23.5001L32.708 23.5912ZM28.3387 28.0473C28.2592 28.2068 28.1457 28.4234 27.9869 28.6969C27.828 28.9704 27.7145 29.1869 27.635 29.3465L28.3387 28.0473ZM28.7359 27.3407L28.7926 27.5116L28.9061 27.3407L28.8494 27.2267L28.7359 27.3407ZM29.8481 31.5004C30.3134 30.8394 30.756 30.1556 31.1645 29.4491C31.5731 28.7425 31.993 28.0587 32.4129 27.3977C32.2994 27.4319 32.1065 27.637 31.8341 28.0131C31.5617 28.3892 31.2894 28.7995 31.017 29.2781C30.7446 29.7454 30.495 30.2012 30.2566 30.6229C30.0296 31.056 29.8821 31.3409 29.8481 31.5004ZM31.3121 34.6003V34.4863C31.278 34.5205 31.2213 34.5547 31.1645 34.5775C31.1078 34.6003 31.0737 34.6459 31.0737 34.7257H31.1872L31.3121 34.6003ZM36.0332 26.1669C35.0231 27.2951 34.1606 28.4576 33.4683 29.6542C32.7647 30.8508 32.1405 32.1386 31.5958 33.5518L31.539 33.6088H31.5958L32.935 30.9192C33.3662 30.0987 33.8883 29.3237 34.5124 28.5715C35.1366 27.8308 35.6473 27.033 36.0332 26.1669ZM38.6548 25.1754C38.076 25.3691 37.3837 25.9617 36.5893 26.9304C35.7949 27.9105 35.0345 28.9932 34.3195 30.1784C33.5932 31.3751 32.9917 32.5603 32.481 33.757C31.9703 34.9536 31.7206 35.8311 31.7206 36.4237C31.7206 36.5035 31.7433 36.5377 31.7774 36.5377C32.1292 35.7969 32.4016 35.0334 32.5945 34.2584C32.7874 33.472 33.0825 32.7313 33.4683 32.0361C34.1266 30.7825 34.9551 29.62 35.9424 28.5487C36.9411 27.4661 37.8377 26.3492 38.6548 25.1754ZM41.4579 27.2837C41.4579 26.7367 41.4579 26.201 41.4579 25.6768C41.4579 25.1526 41.3785 24.6283 41.2196 24.1269C41.1856 24.1269 41.1515 24.1155 41.1288 24.0927C41.1061 24.0699 41.0834 24.0585 41.038 24.0585C40.8451 24.0585 40.5727 24.1953 40.2209 24.4688C39.8691 24.7423 39.4946 25.05 39.1087 25.4033C38.7229 25.7566 38.3484 26.1099 37.9965 26.4518C37.6447 26.8051 37.4178 27.0558 37.2929 27.2153C36.6687 27.9219 36.0332 28.8223 35.3977 29.9049C34.7508 30.999 34.172 32.15 33.6499 33.3581C33.1279 34.5661 32.6853 35.7855 32.3335 36.9936C31.9816 38.2016 31.8114 39.2729 31.8114 40.2188C31.8114 40.3783 31.8114 40.6633 31.8114 41.0735C31.8114 41.4838 31.8341 41.9055 31.9022 42.3386C31.959 42.7716 32.0497 43.1477 32.1632 43.4782C32.2767 43.8087 32.4356 43.9797 32.6285 43.9797C32.742 43.9797 32.9009 43.9341 33.0938 43.8315C33.2868 43.7289 33.423 43.6492 33.5024 43.5694C34.8983 42.6691 35.9764 41.632 36.7368 40.4353C37.4972 39.2501 38.1214 37.9851 38.598 36.6631C39.086 35.3411 39.5173 33.9735 39.8805 32.5945C40.255 31.2041 40.7657 29.8365 41.4239 28.469V27.2837H41.4579ZM37.7242 41.0507C37.9625 40.857 38.2349 40.5265 38.5753 40.0592C38.9045 39.592 39.2222 39.0791 39.5059 38.5321C39.801 37.9851 40.0507 37.438 40.2663 36.891C40.4819 36.344 40.6068 35.9109 40.6408 35.6032L40.5273 35.3069L39.8805 36.4237L40.4592 35.4892C40.1415 36.5035 39.6875 37.4266 39.086 38.27C38.4959 39.1019 38.0306 40.0365 37.7242 41.0507ZM41.98 36.0705C41.9006 36.5035 41.753 36.9252 41.5487 37.3583C41.3331 37.7913 41.1515 38.213 40.9926 38.6461V38.7031C41.0267 38.7031 41.1288 38.5549 41.2877 38.2586C41.4466 37.9623 41.5941 37.6318 41.753 37.2671C41.9119 36.891 42.0594 36.5377 42.2183 36.1844C42.3772 35.8311 42.4907 35.5804 42.5701 35.4208L41.98 36.0705ZM46.1791 32.321C46.0656 32.321 45.9861 32.3894 45.9407 32.5261C45.9067 32.6629 45.8613 32.7655 45.8273 32.8452C45.3279 34.4066 44.681 35.8995 43.8979 37.3241C43.1262 38.7486 42.4226 40.2074 41.7984 41.6889C42.2297 41.1419 42.6155 40.5265 42.9673 39.8427C43.3192 39.1589 43.6483 38.4637 43.9547 37.7685C44.2611 37.062 44.5562 36.401 44.8286 35.7741C45.1009 35.1473 45.396 34.6231 45.7024 34.19C45.7365 33.8823 45.8046 33.5632 45.9067 33.2555C46.0202 32.9478 46.0996 32.6287 46.1791 32.321ZM44.0795 35.3069C43.7277 36.1274 43.3419 36.9252 42.9106 37.7116C42.4793 38.4979 42.1162 39.3185 41.7984 40.1732C41.9119 40.139 42.1275 39.8427 42.4453 39.2957C42.7517 38.7486 43.0695 38.156 43.3759 37.5064C43.6823 36.8568 43.966 36.2414 44.2271 35.6602C44.4767 35.079 44.6016 34.7029 44.6016 34.5433V34.4863C44.5221 34.7599 44.386 34.9536 44.193 35.0676L44.1363 34.9536L43.966 35.0106L44.0795 35.3069ZM42.6269 34.8396L42.7971 34.9536L42.9106 34.7826V34.5433L42.6836 34.6573L42.6269 34.8396Z" fill="#003976"/>
<path d="M66.1752 43.9226C65.8688 44.0821 65.5737 44.2986 65.3014 44.5722C65.2219 44.7317 65.1425 44.8799 65.0744 45.0394C64.995 45.199 64.8815 45.3129 64.7226 45.3927C64.2119 45.4725 63.8714 45.5295 63.7012 45.5637C63.5309 45.5978 63.3948 45.6434 63.3267 45.6776C63.2472 45.7118 63.1451 45.7802 63.0089 45.8486C62.8727 45.9283 62.6117 46.0423 62.2258 46.2019L62.1123 46.6691C61.7605 46.7489 61.4201 46.8629 61.0909 47.0224C60.7618 47.182 60.3987 47.2617 60.0128 47.2617C59.5475 47.2617 59.1162 47.2048 58.7304 47.0908C58.4126 47.2048 58.1629 47.3301 57.97 47.4441C57.7771 47.5581 57.5274 47.615 57.2096 47.615C56.5514 47.615 55.9159 47.4897 55.3144 47.239C54.7129 46.9882 54.0774 46.8629 53.4191 46.8629C53.2262 46.8629 53.1127 46.9198 53.0673 47.0338C53.0333 47.1478 52.9879 47.2731 52.9538 47.3871C52.8403 47.7404 52.6814 48.447 52.4885 49.5297C52.2956 50.6009 52.0686 51.7178 51.8189 52.8688C51.5693 54.0199 51.2969 55.0684 51.0018 56.0029C50.7067 56.9374 50.423 57.4502 50.1506 57.53L49.7988 57.701C49.9123 57.8149 50.0145 57.8719 50.0939 57.8719H50.2641L49.9123 59.684H49.8556L49.7988 59.3877L49.6286 59.5016C49.5492 59.8891 49.4811 60.288 49.4243 60.6755C49.3676 61.063 49.2768 61.4504 49.1633 61.8493C49.0839 61.8151 49.0385 61.7353 49.0158 61.61C48.9931 61.496 48.9817 61.3707 48.9817 61.2339C48.9817 61.0971 48.9704 60.9832 48.959 60.8806C48.9363 60.778 48.8682 60.7097 48.7547 60.6755C48.7093 60.9148 48.6072 61.1769 48.437 61.4618C48.2667 61.7581 48.1192 61.9975 47.9944 62.1912C47.756 62.157 47.6766 62.0317 47.7333 61.8379C47.7901 61.6442 47.7447 61.5074 47.5858 61.4276L47.5291 61.5416C47.4837 62.0886 47.3134 62.6357 47.007 63.1827L46.5985 63.0687C46.519 62.989 46.4623 62.8294 46.4282 62.6015C46.3942 62.3622 46.3601 62.1228 46.3374 61.8721C46.3147 61.6214 46.3147 61.3593 46.3147 61.1085C46.3147 60.8578 46.3147 60.6755 46.3147 60.5501C46.3147 57.701 46.5304 54.886 46.9616 52.1167C47.3929 49.3473 47.949 46.6007 48.6526 43.8884C49.3562 41.176 50.1279 38.475 50.9905 35.8082C51.8416 33.13 52.7041 30.4518 53.5553 27.7509C53.8277 27.5571 53.9979 27.2608 54.0774 26.8733C54.1568 26.4859 54.1908 26.1326 54.1908 25.8135V25.7565C53.9979 25.916 53.8731 26.0756 53.839 26.2579C53.805 26.4289 53.7028 26.6226 53.544 26.8164C53.544 26.7366 53.5667 26.5884 53.6007 26.3719C53.6347 26.1554 53.6801 26.0072 53.7142 25.9274V25.8135C53.6007 26.0528 53.3737 26.5428 53.0446 27.2722C52.7155 28.013 52.3864 28.8107 52.0573 29.6427C51.7281 30.486 51.4331 31.2724 51.1834 32.0132C50.9337 32.754 50.7862 33.2212 50.7408 33.415C50.8997 33.301 51.0018 33.1414 51.0586 32.9477C51.1153 32.754 51.1834 32.5716 51.2628 32.4235C51.5352 31.7169 51.7962 31.0217 52.0459 30.3151C52.2956 29.6085 52.602 28.9247 52.9538 28.2637L53.0106 28.3207C52.9765 28.4802 52.829 28.9019 52.568 29.6085C52.3183 30.3151 52.0232 31.0673 51.6941 31.865C51.365 32.6628 51.0472 33.3808 50.7635 34.0076C50.4684 34.6344 50.2641 34.9421 50.1506 34.9421C50.2301 35.1016 50.2074 35.4777 50.0939 36.0817C49.9804 36.6858 49.8215 37.324 49.6286 37.985C49.4357 38.646 49.2314 39.25 49.0158 39.797C48.8001 40.344 48.6413 40.6404 48.5164 40.6745L48.4597 40.7315L48.7547 41.0278L48.5164 41.4381C48.437 42.0991 48.3008 42.7487 48.1079 43.3755C47.9149 44.0023 47.722 44.6291 47.5291 45.256L47.5858 45.6662C47.4723 46.1791 47.3475 46.8629 47.234 47.7404C47.1205 48.6179 46.9162 49.2561 46.6552 49.6436C46.6552 49.8374 46.6212 50.2248 46.5417 50.8175C46.4623 51.3987 46.3715 52.0483 46.2466 52.7549C46.1332 53.4615 46.0197 54.168 45.9289 54.8974C45.8267 55.6154 45.7813 56.1966 45.7813 56.6297C45.7813 56.8234 45.7813 57.0172 45.7813 57.2109C45.7813 57.4047 45.804 57.5984 45.8381 57.7921L45.6679 57.9631C45.6679 58.1226 45.6565 58.2594 45.6338 58.3734C45.6111 58.4873 45.6111 58.6241 45.6111 58.7836C45.6111 59.4446 45.6338 60.1056 45.7019 60.778C45.7586 61.439 45.8267 62.1 45.9062 62.7724L45.7927 63.1257C45.4863 62.8864 45.2479 62.5331 45.0891 62.0431C44.9302 61.553 44.8167 61.0402 44.7372 60.4931C44.6578 59.9461 44.6124 59.3991 44.5897 58.852C44.567 58.305 44.5557 57.8719 44.5557 57.5642C44.5557 56.3904 44.6351 55.2393 44.794 54.1111C44.9529 52.9828 45.1458 51.8432 45.3728 50.7149C45.6111 49.5866 45.8381 48.447 46.0764 47.3187C46.3147 46.1905 46.485 45.0394 46.5985 43.8656C46.6779 43.2388 46.8935 42.1903 47.268 40.7315C47.6426 39.2728 48.1079 37.6317 48.6639 35.8082C49.2314 33.9962 49.8556 32.1043 50.5592 30.1555C51.2628 28.2067 51.9892 26.4175 52.7495 24.7992C53.5099 23.1809 54.2476 21.8361 54.9626 20.7876C55.6775 19.7277 56.3358 19.1921 56.9146 19.1465C56.9146 19.3402 56.8805 19.5112 56.8011 19.6479C56.7216 19.7847 56.6422 19.9328 56.5627 20.0924L56.8578 19.7961C56.6649 20.2292 56.4606 20.6622 56.245 21.1181C56.0294 21.5626 55.8251 22.007 55.6321 22.4401C55.7456 22.3603 55.9272 22.1666 56.1542 21.8589C56.3812 21.5512 56.6195 21.2207 56.8578 20.8902C57.0961 20.5597 57.3004 20.2519 57.5047 19.9784C57.6976 19.7049 57.8338 19.5682 57.9133 19.5682C58.0268 19.5682 58.1062 19.6137 58.1516 19.7163C58.1856 19.8189 58.2537 19.8987 58.3218 19.9784C58.9006 20.2178 59.3092 20.4913 59.5475 20.8332C59.7858 21.1637 59.8993 21.6423 59.8993 22.2691C59.8993 22.6224 59.8766 22.9757 59.8085 23.329C59.7518 23.6823 59.7177 24.047 59.7177 24.4459V24.7422L59.9561 24.161L60.0695 24.047C60.0695 24.594 60.0355 25.1069 59.9561 25.5741C59.8766 26.0414 59.7972 26.5314 59.7177 27.0443C60.2171 26.5314 60.7618 25.9844 61.352 25.4032C61.9308 24.822 62.5663 24.2749 63.2472 23.7621C63.9282 23.2606 64.6318 22.8276 65.3468 22.4743C66.0617 22.121 66.8108 21.95 67.5938 21.95C68.3315 21.95 69.0919 22.121 69.8636 22.4743C70.6353 22.8276 71.3617 23.272 72.0199 23.8191C72.6781 24.3661 73.2229 25.0157 73.6541 25.7565C74.0854 26.4973 74.301 27.238 74.301 27.9788C74.301 28.3321 74.3578 28.5828 74.4712 28.7424C74.4712 29.3236 74.3691 29.939 74.1535 30.5886C73.9378 31.2382 73.7563 31.8308 73.5974 32.3779L74.1194 31.7966C74.1194 31.6029 74.1989 31.4889 74.3578 31.4433C74.3578 31.4775 74.3691 31.5231 74.3805 31.5573C74.4032 31.5915 74.4145 31.6371 74.4145 31.6713C74.4145 31.979 74.2102 32.5944 73.8017 33.4833C73.3931 34.3837 72.9165 35.3182 72.3717 36.2983C71.827 37.2784 71.2936 38.1787 70.7715 39.022C70.2495 39.8654 69.8523 40.401 69.5799 40.629C69.4664 40.8227 69.3189 41.0506 69.1373 41.3014C68.9671 41.5521 68.7628 41.8142 68.5585 42.0649C68.3429 42.3156 68.1159 42.555 67.8889 42.7715C67.6619 42.988 67.4463 43.1134 67.242 43.1476L66.72 43.5579C66.72 43.7972 66.6405 43.934 66.4816 43.9681L66.3114 43.7972L66.1752 43.9226ZM47.4496 60.9604C47.4837 60.8806 47.5064 60.7438 47.5064 60.5501C47.5064 60.4361 47.4837 60.3792 47.4496 60.3792L47.3361 60.7894L47.4496 60.9604ZM48.0965 56.6867V56.6297C48.0965 56.5499 48.0511 56.5157 47.983 56.5157L47.8695 56.6297L47.9263 56.6867H48.0965ZM48.6186 51.5354C48.6186 51.5013 48.6413 51.4329 48.6753 51.3645C48.7093 51.2847 48.698 51.2505 48.6186 51.2505V51.5354ZM48.9136 59.7979C48.9931 59.7979 49.0498 59.741 49.0839 59.627C49.1179 59.513 49.1633 59.4104 49.1973 59.3307L49.1406 59.1483L48.7888 59.0914L48.732 59.6726L48.9136 59.7979ZM49.901 60.3792L49.7307 60.5501L49.5605 60.3792L49.7307 60.2652L49.901 60.3792ZM49.6059 47.4897L49.6626 47.6606L49.7761 47.7176C49.935 47.7176 50.0145 47.615 50.0145 47.4213L49.8442 47.3073L49.6059 47.4897ZM50.6613 33.7796L50.4911 33.8936C50.4571 34.0076 50.423 34.1215 50.4003 34.2127C50.3776 34.3153 50.3776 34.4178 50.3776 34.5318L50.6613 33.7796ZM50.4911 55.9801L50.4344 55.9231V56.2194L50.4911 55.9801ZM50.5479 53.7008C50.5138 53.7806 50.4911 53.8945 50.4911 54.0541L50.5479 53.7008ZM50.9564 50.4186L51.0132 50.1793L50.8997 49.826L50.7862 49.9399L50.9564 50.4186ZM51.4785 53.9971C51.4444 53.9971 51.3763 53.9743 51.3082 53.9401C51.2288 53.9059 51.172 53.8831 51.138 53.8831H50.8429C50.9224 54.0769 51.0813 54.1794 51.3082 54.1794L51.4785 53.9971ZM51.1834 48.8345L50.8883 49.3017L50.9451 49.4157L51.2401 49.0054L51.1834 48.8345ZM51.4785 47.8999L51.3082 48.0139L51.5352 48.1849L51.6487 48.0139L51.4785 47.8999ZM51.4217 52.7093C51.853 51.7292 52.1367 50.7491 52.2956 49.7462C52.4545 48.7547 52.6701 47.7404 52.9425 46.7261L52.8857 46.5552C52.568 47.3757 52.2502 48.333 51.9211 49.4271C51.592 50.5212 51.4217 51.5126 51.4217 52.413V52.7093ZM51.592 39.8198L51.7054 39.9338L51.8189 39.5805L51.7054 39.5235L51.592 39.8198ZM51.7735 46.6691C51.887 46.5552 51.9438 46.4298 51.9438 46.3158C51.9438 46.0423 51.8984 45.8486 51.8303 45.7346L51.6033 46.0309L51.7735 46.0879L51.8303 46.3842C51.7168 46.6235 51.66 46.8287 51.66 47.0338L51.7168 47.4441L51.7735 46.6691ZM51.887 39.1702C52.08 38.6574 52.3637 37.9166 52.7382 36.9479C53.1127 35.9678 53.4759 34.9535 53.8504 33.905C54.2249 32.8451 54.554 31.8422 54.8718 30.8849C55.1782 29.9276 55.3711 29.221 55.4506 28.7424C55.3371 28.8221 55.0761 29.3692 54.6902 30.3835C54.3043 31.3978 53.9071 32.5146 53.4986 33.7227C53.09 34.9307 52.7268 36.0817 52.4204 37.1758C52.1027 38.2699 51.9211 38.9423 51.887 39.1702ZM52.9992 27.9902C52.9992 27.956 53.056 27.8193 53.1694 27.6141C53.2829 27.3976 53.3851 27.2494 53.4645 27.181C53.4305 27.2608 53.3624 27.4318 53.2602 27.7053C53.1581 27.9788 53.0787 28.1156 52.9992 28.1156V27.9902ZM53.7482 39.9338C53.8277 39.9338 53.9185 39.8312 54.0093 39.6375C54.1114 39.4437 54.1908 39.2272 54.2703 38.9879C54.3497 38.7485 54.4178 38.532 54.4746 38.3155C54.5313 38.0989 54.5654 37.9508 54.5654 37.8824V37.7684L53.7482 39.9338ZM55.2122 43.4439C56.1428 43.4439 57.0734 43.1362 57.9814 42.5094C58.9006 41.8826 59.7745 41.1304 60.637 40.2529C61.4882 39.3753 62.2712 38.4522 62.9749 37.4721C63.6785 36.492 64.2573 35.6601 64.7226 34.9535C65.6191 33.5859 66.3114 32.1613 66.7881 30.6798C67.2761 29.1982 67.6506 27.6369 67.923 25.9958C67.0718 25.9958 66.1752 26.3833 65.2673 27.1696C64.3481 27.956 63.4742 28.8791 62.6457 29.9504C61.8059 31.0217 61.0229 32.1043 60.2852 33.1984C59.5475 34.2925 58.9233 35.1472 58.4126 35.774C58.5715 35.227 58.7985 34.7142 59.1162 34.2241C59.4227 33.7341 59.7745 33.2554 60.1603 32.7881C60.5462 32.3209 60.9207 31.865 61.2725 31.4092C61.6243 30.9647 61.9194 30.4632 62.1464 29.9162C61.8286 30.1555 61.3974 30.6684 60.8299 31.4661C60.2625 32.2639 59.695 33.1414 59.1049 34.0987C58.5261 35.0561 57.97 35.9792 57.4366 36.8795C56.9146 37.7798 56.5287 38.4408 56.3017 38.8739C56.5741 38.2927 56.8578 37.7114 57.1529 37.1416C57.448 36.5718 57.6863 36.002 57.8792 35.4093C57.5728 35.7171 57.3231 36.1045 57.1529 36.549C56.9827 36.9935 56.733 37.4037 56.4266 37.7456C56.3812 37.985 56.3131 38.2471 56.2223 38.532C56.1201 38.8283 55.9953 39.0676 55.8478 39.2614L55.9045 39.3753L56.3131 39.079C56.0067 39.7856 55.7116 40.4808 55.4392 41.1532C55.1668 41.837 54.8945 42.5322 54.6221 43.2274C54.7469 43.3869 54.9399 43.4439 55.2122 43.4439ZM55.5073 38.4066C55.3938 38.4066 55.2917 38.532 55.2122 38.7827C55.1328 39.0334 55.0761 39.2272 55.042 39.3412L55.5073 38.4066ZM55.4506 46.9654H55.2122L55.1555 47.0224L55.4506 46.9654ZM55.6208 28.0472L55.5073 28.1611L55.5641 28.4005L55.6775 28.2865L55.6208 28.0472ZM56.0294 36.9479C55.9953 37.0277 55.9045 37.1986 55.7683 37.4721C55.6321 37.7456 55.5641 37.9052 55.5641 37.9394V38.0533C55.7229 37.8938 55.8137 37.7228 55.8591 37.5291C55.8932 37.3354 55.9499 37.1416 56.0294 36.9479ZM57.6636 28.4575C57.5841 28.617 57.4593 28.8905 57.2891 29.3122C57.1188 29.7225 56.9373 30.1555 56.767 30.6C56.5968 31.0445 56.4379 31.4661 56.3017 31.865C56.1655 32.2525 56.0974 32.5146 56.0974 32.6286V32.7426C56.4493 32.2411 56.7557 31.5459 57.0281 30.6684C57.2891 29.7681 57.5047 29.0387 57.6636 28.4575ZM57.6636 31.5003C57.5047 31.7738 57.3345 32.1043 57.1415 32.4918C56.9486 32.8793 56.8351 33.2326 56.7897 33.5517C56.9486 33.244 57.0848 32.9135 57.2323 32.583C57.3685 32.2525 57.5274 31.9334 57.7317 31.6143L57.6636 31.5003ZM58.3672 34.6002C58.2537 34.6344 58.1743 34.7142 58.1289 34.8395L58.2424 34.8965L58.3559 34.7256V34.6002H58.3672ZM59.173 26.634C58.9801 26.8733 58.8325 27.1469 58.7304 27.4546C58.6282 27.7623 58.5602 28.0814 58.5261 28.3891C58.6055 28.2751 58.7304 28.0814 58.9006 27.8079C59.0708 27.5343 59.1616 27.295 59.1616 27.1013V26.634H59.173ZM58.5942 34.3723C58.8325 34.0646 59.0708 33.7113 59.3205 33.3124C59.5702 32.9249 59.7631 32.5374 59.8766 32.1385C59.6837 32.3323 59.4227 32.6856 59.0935 33.187C58.7644 33.7113 58.5942 34.0987 58.5942 34.3723ZM61.9194 26.1098C61.6811 26.1895 61.4087 26.3947 61.1023 26.7252C60.7959 27.0557 60.4668 27.4432 60.1376 27.8648C59.8085 28.2979 59.5135 28.7196 59.2638 29.1299C59.0141 29.5401 58.8666 29.8592 58.8212 30.0986C60.0355 28.8449 61.0682 27.5115 61.9194 26.1098ZM59.5248 46.7261V46.6121L59.3546 46.7831L59.4113 46.8971L59.5248 46.7261ZM60.0582 23.5342C60.0242 23.4544 60.0015 23.3404 60.0015 23.1809L60.0582 23.5342ZM60.4668 31.261L60.2965 31.375L60.1263 31.7283H60.183L60.4668 31.261ZM61.8059 46.2019L61.6924 46.3158L61.7492 46.4298L61.8627 46.3158L61.8059 46.2019ZM64.9496 38.2357C65.3354 37.5747 65.8234 36.8453 66.4136 36.0703C66.9923 35.2954 67.3442 34.509 67.4577 33.7227C67.3442 33.8024 67.2193 33.9278 67.1058 34.0987C66.9923 34.2697 66.8902 34.4178 66.8108 34.5432C66.5724 34.9763 66.2547 35.4549 65.8461 35.9792C65.4376 36.5034 65.0176 37.0504 64.5864 37.6203C64.1551 38.1901 63.7579 38.7143 63.3948 39.2044C63.0202 39.6944 62.7592 40.0933 62.6117 40.401C63.1564 40.0933 63.5877 39.6944 63.8941 39.2272C64.2119 38.7599 64.5637 38.4294 64.9496 38.2357ZM63.6104 45.8486C63.5309 45.9283 63.4515 46.0423 63.3721 46.2019C63.2926 46.3614 63.1791 46.4412 63.0202 46.4412L62.9068 46.3842V46.0879L63.6104 45.8486ZM64.7226 44.6177L64.6658 44.4468L64.4956 44.6177L64.6091 44.7317L64.7226 44.6177ZM64.9496 44.3328C65.1425 44.1391 65.256 44.0023 65.3014 43.9226L65.2446 43.8656C65.1652 43.8656 65.0971 43.8998 65.0403 43.9795C64.9836 44.0593 64.9382 44.1391 64.8928 44.2189L64.9496 44.3328ZM66.4703 42.7487L66.232 42.6347L66.1752 42.7487L66.3455 42.9197L66.4703 42.7487ZM67.0491 33.4377C66.8902 33.5973 66.7881 33.7454 66.7313 33.905C66.6746 34.0646 66.6065 34.2355 66.527 34.4292C66.6859 34.2697 66.7881 34.1215 66.8448 33.962C66.9129 33.8024 66.9696 33.6315 67.0491 33.4377ZM66.7086 42.7487L66.5951 42.9197L66.6519 43.0336L66.7654 42.9197L66.7086 42.7487ZM68.5698 35.3638C68.4904 35.5233 68.445 35.7057 68.4223 35.9222C68.3996 36.1387 68.2975 36.3439 68.1045 36.5376C68.411 36.1501 68.7287 35.7398 69.0351 35.3068C69.3416 34.8737 69.5799 34.3951 69.7388 33.848C69.5458 34.0076 69.3529 34.2925 69.16 34.7256C68.9557 35.1472 68.7628 35.3638 68.5698 35.3638ZM71.8951 33.7796C71.2368 34.68 70.658 35.6373 70.17 36.6516C69.682 37.6659 69.0692 38.6232 68.3315 39.5235C68.6039 39.4095 68.9216 39.0904 69.2962 38.589C69.6707 38.0761 70.0225 37.5291 70.3743 36.9251C70.7261 36.3211 71.0325 35.7284 71.3049 35.1358C71.5886 34.5432 71.7816 34.0987 71.8951 33.7796ZM73.4725 32.9591C73.2796 33.2668 72.9165 33.848 72.3944 34.6914C71.8724 35.5347 71.3276 36.4236 70.7602 37.3582C70.1927 38.2927 69.682 39.1702 69.2167 39.9908C68.7514 40.8113 68.479 41.3355 68.3996 41.5749C68.7514 41.1418 69.1827 40.5492 69.7161 39.7856C70.2381 39.022 70.7602 38.2129 71.2936 37.3582C71.8156 36.5034 72.2809 35.6829 72.6895 34.8965C73.0867 34.1101 73.3591 33.4719 73.4725 32.9591Z" fill="#003976"/>
<path d="M74.5505 42.0984C74.5051 41.9844 74.4938 41.7907 74.4938 41.5171C74.4938 41.2094 74.5278 40.9017 74.6073 40.6054C74.6867 40.3091 74.7661 40.0128 74.8456 39.6937L75.1407 39.3404C75.0612 39.1809 75.1634 38.6224 75.4357 37.6651C75.7081 36.7078 76.0826 35.5454 76.5479 34.1778C77.0132 32.8102 77.5353 31.3514 78.1254 29.7787C78.7042 28.2174 79.283 26.7472 79.8504 25.3569C80.4179 23.9665 80.9172 22.7584 81.3712 21.7214C81.8138 20.6843 82.1429 20.0119 82.3358 19.7042C82.4493 19.67 82.5742 19.613 82.6876 19.556C82.8011 19.499 82.926 19.4648 83.0395 19.4648C83.1529 19.4648 83.3345 19.5446 83.5615 19.7042C83.7998 19.8637 84.0495 20.0461 84.3219 20.2626C84.5943 20.4791 84.8439 20.6957 85.0823 20.9122C85.3092 21.1287 85.4908 21.2769 85.6043 21.3567C85.9902 22.0177 86.3533 22.7129 86.6824 23.4308C87.0116 24.1488 87.1931 24.901 87.2385 25.6874C87.2726 25.6874 87.3407 25.7101 87.4088 25.7443C87.4882 25.7785 87.545 25.8013 87.579 25.8013C87.7719 25.8013 87.9308 25.7443 88.0443 25.6304C88.1578 25.5164 88.3167 25.4594 88.5096 25.4594L88.6231 25.5734C88.5777 25.7671 88.4529 26.0179 88.2145 26.337L88.8614 25.7557C88.6685 25.9495 88.4869 26.1546 88.3394 26.3711C88.1805 26.5877 88.0216 26.7928 87.8741 26.9866C87.9535 26.827 87.9876 26.6902 87.9876 26.5763C87.9081 26.6105 87.8173 26.713 87.6925 26.8726C87.579 27.0321 87.4542 27.2145 87.3407 27.431C87.2272 27.6476 87.125 27.8413 87.0456 28.0122C86.9662 28.1832 86.9321 28.32 86.9321 28.3883C86.9321 28.4681 86.9435 28.5251 86.9662 28.5593C86.9889 28.5935 87.0002 28.6619 87.0002 28.7302C87.1137 28.4567 87.352 28.1376 87.7038 27.7615C88.0557 27.3854 88.3507 27.0891 88.5777 26.8498V26.4965C88.7366 26.4167 89.0544 26.166 89.5424 25.7329C90.0304 25.2999 90.5297 24.8326 91.0631 24.3312C91.5851 23.8297 92.0845 23.3397 92.5498 22.8952C93.0151 22.4507 93.2875 22.1658 93.3669 22.0405L92.9584 21.9265C92.5271 22.2 92.1185 22.4735 91.7327 22.747C91.3468 23.0206 90.9723 23.3169 90.6205 23.6246L90.3254 23.6816C90.4049 23.7613 90.4276 23.8525 90.3822 23.9437C90.3481 24.0463 90.28 24.1488 90.2119 24.2628C90.1325 24.3768 90.0417 24.4793 89.9169 24.5591C89.8034 24.6389 89.7239 24.6959 89.6785 24.73C89.8715 24.5363 89.9736 24.3426 89.9736 24.1488C89.6218 24.5021 89.2813 24.7984 88.9522 25.0605C88.6231 25.3113 88.1805 25.4366 87.6357 25.4366C87.9876 24.9694 88.4415 24.4109 89.009 23.7727C89.5764 23.1231 90.1779 22.5077 90.8134 21.9265C91.4603 21.3453 92.1299 20.8552 92.8222 20.4677C93.5258 20.0803 94.2067 19.8865 94.865 19.8865C95.875 19.8865 96.6581 20.0803 97.2028 20.4677C97.7476 20.8552 98.3491 21.4023 99.0073 22.1088C99.1208 22.2684 99.2797 22.4621 99.4726 22.6901C99.6655 22.9294 99.745 23.1345 99.6996 23.3397L99.8698 24.0463C100.063 24.0463 100.165 24.2058 100.188 24.5135C100.21 24.8212 100.233 25.0378 100.278 25.1631C100.085 25.2771 99.9833 25.4708 99.9606 25.7215C99.9379 25.9723 99.9266 26.2002 99.9266 26.3939C99.9266 26.5877 99.9152 26.7358 99.9039 26.8384C99.8812 26.941 99.779 27.0663 99.5861 27.2145C99.6201 27.4082 99.5747 27.5792 99.4386 27.7159C99.3024 27.8527 99.1548 27.9553 98.9959 28.035L98.9392 28.6846H98.7009L98.5874 28.3883L98.1788 28.5023L98.4739 28.9696C98.281 29.1291 98.0086 29.2089 97.6568 29.2089C97.5433 29.4026 97.4185 29.585 97.305 29.7673C97.1915 29.9383 97.0893 30.132 97.0099 30.3257L96.3063 30.679C96.4992 30.679 96.6808 30.6676 96.8283 30.6448C96.9872 30.6221 97.1234 30.5423 97.2369 30.3827L97.8157 30.0294L96.2949 31.5566L96.0566 31.3172L96.2949 30.964L95.5913 30.85L95.2395 30.5537V30.2574L94.9444 30.4967C94.7855 30.4625 94.5018 30.4055 94.0705 30.3485C93.6393 30.2916 93.4237 30.1662 93.4237 29.9725C93.4237 29.9383 93.4464 29.8357 93.5145 29.6761C93.5712 29.5166 93.6052 29.4026 93.6052 29.3228L93.5485 29.2089C93.3896 29.1291 93.174 29.0493 92.8789 28.9696C92.5838 28.8898 92.3796 28.8556 92.2661 28.8556C92.0731 28.8556 91.7894 29.0607 91.4149 29.471C91.0404 29.8813 90.6318 30.4169 90.1665 31.0779C89.7012 31.7389 89.2132 32.4569 88.7025 33.2205C88.1918 33.984 87.7152 34.7362 87.2385 35.477C86.7732 36.2178 86.3533 36.8788 85.9902 37.4372C85.6156 38.007 85.3546 38.4059 85.2071 38.6338C85.4795 38.1324 85.8653 37.4258 86.376 36.5255C86.8754 35.6251 87.4201 34.7248 88.0103 33.8017C88.589 32.89 89.1678 32.0124 89.7353 31.1919C90.3027 30.3713 90.7794 29.7673 91.1652 29.3798C91.3582 29.1861 91.6078 28.9354 91.8916 28.6505C92.1866 28.3541 92.3682 28.092 92.4477 27.8641C91.1652 28.9582 89.9623 30.2916 88.8614 31.8529C87.7492 33.4142 86.7051 35.0553 85.7064 36.7762C84.7191 38.4971 83.7431 40.2179 82.7898 41.9616C81.8365 43.6939 80.8491 45.2666 79.8391 46.6798L78.795 48.0246C78.6021 48.0246 78.4545 48.0702 78.3524 48.1727C78.2502 48.2753 78.1481 48.3551 78.0346 48.4348L77.7963 48.9021V47.7852L77.7395 47.8422C77.4672 48.0018 77.2856 48.093 77.2175 48.1385C77.1381 48.1727 77.0927 48.2183 77.07 48.2525C77.0473 48.2867 77.0359 48.3437 77.0132 48.4007C76.9905 48.4576 76.9111 48.6058 76.7522 48.8451C76.7522 49.0389 76.6728 49.1414 76.5139 49.1414L76.4004 49.0845L76.6274 47.7966C76.7068 47.5231 76.8089 47.2382 76.9451 46.9419C77.0813 46.6456 77.1834 46.3835 77.2629 46.1555C77.4218 45.7225 77.6374 45.1754 77.9098 44.5144C78.1821 43.8534 78.4545 43.1696 78.7269 42.4631C78.9993 41.7565 79.2489 41.0841 79.4873 40.4459C79.7256 39.7963 79.8731 39.2606 79.9526 38.839L79.8958 38.782C79.7029 39.1695 79.4759 39.7051 79.2262 40.3889C78.9766 41.0727 78.7042 41.7793 78.4432 42.4972C78.1708 43.2152 77.9211 43.8876 77.6828 44.4916C77.4445 45.0957 77.2515 45.4945 77.104 45.6883C77.104 45.6085 77.1267 45.4945 77.1608 45.335C77.1948 45.1754 77.2175 45.0615 77.2175 44.9817C76.9111 45.5287 76.6954 46.11 76.5706 46.7368C76.4571 47.3636 76.2755 47.9676 76.0486 48.5488L75.9918 48.6058V48.5488C75.9918 48.3551 76.0713 48.0588 76.2301 47.6713C75.9918 47.865 75.8329 48.1841 75.7308 48.64C75.6287 49.0844 75.4698 49.415 75.2314 49.6087C75.152 49.4491 75.0839 49.301 75.0272 49.1414C74.9704 48.9819 74.9364 48.8337 74.9364 48.6742C74.9364 48.2867 74.9818 47.9334 75.0839 47.6143C75.186 47.3066 75.379 47.0445 75.6967 46.8507C75.6173 46.3493 75.674 45.7795 75.8443 45.1526C76.0145 44.5258 76.1621 43.9788 76.2869 43.5115C76.4798 43.3178 76.616 43.0785 76.6954 42.805L76.6387 42.634C76.5593 42.5998 76.4685 42.5314 76.3436 42.4289C76.2301 42.3263 76.1848 42.2465 76.2301 42.1668C76.2642 42.0072 76.3209 41.7907 76.3777 41.5171C76.4344 41.2436 76.5025 41.0499 76.582 40.9359L76.6387 41.1069L77.0473 41.3462C77.0019 41.0727 76.9451 40.8334 76.877 40.6168C76.7976 40.4003 76.7408 40.161 76.7068 39.8874L76.2415 40.1838L75.9464 40.594L76.0032 41.0043L76.2982 41.1753L75.8897 41.5285C75.8897 42.7822 75.6741 44.013 75.2428 45.221C74.8115 46.4291 74.4597 47.6257 74.1987 48.7995C74.0852 48.6856 73.9717 48.5602 73.8809 48.4235C73.7788 48.2867 73.7334 48.1157 73.7334 47.922C73.7334 47.7625 73.7674 47.4661 73.8469 47.0103C73.9263 46.5658 74.0171 46.0872 74.1079 45.5743C74.21 45.0729 74.3008 44.5942 74.403 44.1725C74.5051 43.7395 74.5846 43.466 74.664 43.352L74.8342 43.238C74.8342 43.0443 74.8002 42.8619 74.7434 42.7138C74.6867 42.5542 74.6186 42.4061 74.5392 42.2465H74.5959L74.7094 42.0756L74.6527 41.9616L74.5505 42.0984ZM75.4244 48.6058L75.2541 48.4918L75.0158 48.6058L75.1861 48.7198L75.4244 48.6058ZM76.2415 43.0443L76.0032 42.8733L76.1167 42.7594H76.2301L76.4004 42.9987L76.2415 43.0443ZM77.2856 39.4088L77.2288 39.3518C77.0359 39.4658 76.9338 39.4088 76.9338 39.1809L76.6387 39.0099C76.7181 39.0897 76.7635 39.2036 76.7862 39.3632C76.8089 39.5228 76.8203 39.6595 76.8203 39.7735L77.1721 39.8305L77.2856 39.4088ZM76.7635 38.2919L76.8203 38.4629L77.2288 38.5199L77.3991 38.4059L77.104 38.2349L76.9905 37.9956H76.877L76.7635 38.2919ZM76.7635 46.4405L76.877 46.0302L76.9905 45.9732L76.877 46.3265L76.7635 46.4405ZM77.6941 36.1836C77.6147 36.2633 77.5126 36.4457 77.3764 36.742C77.2402 37.0383 77.1721 37.2207 77.1721 37.3004V37.3574L77.4672 37.0041C77.5012 36.8902 77.558 36.7648 77.6147 36.6508C77.6715 36.5369 77.7055 36.4001 77.7055 36.2406V36.1836H77.6941ZM78.3978 34.4285L78.2843 34.1322C78.2843 34.1664 78.2616 34.2576 78.1935 34.3943C78.1368 34.5311 78.1027 34.6222 78.1027 34.6564V34.8274L78.3978 34.4285ZM78.3978 41.8135L78.1027 42.2807V42.3377L78.341 42.0984L78.3978 41.8135ZM79.3851 31.9099L79.3284 31.7389L79.1581 31.9099L79.2716 32.1492L79.3851 31.9099ZM79.6234 31.2603L79.51 31.1463L79.3965 31.2603L79.5667 31.3742L79.6234 31.2603ZM79.9185 32.0808L79.8618 31.7275L79.6915 31.9668L79.805 32.2632L79.9185 32.0808ZM80.3271 37.9386L80.1568 37.9956L80.0434 38.2919L80.1001 38.3489L80.2703 38.2349L80.3271 37.9386ZM80.7356 29.0949L80.6222 28.924L80.5087 28.981L80.6222 29.1519L80.7356 29.0949ZM81.0194 36.3659C81.0988 36.2064 81.1329 36.0696 81.1329 35.9556L81.1896 35.8417C81.0307 35.9556 80.9626 36.0924 80.9626 36.2519L81.0194 36.3659ZM81.9046 33.9612V33.7219L81.7911 33.6079L81.9046 33.9612ZM82.1316 42.1554C82.245 42.1554 82.4153 41.973 82.6309 41.5969C82.8465 41.2208 82.9487 40.9815 82.9487 40.8675L82.1316 42.1554ZM82.5969 38.8162V38.9301L82.7103 38.5768L82.5969 38.8162ZM83.0622 31.6705L82.9487 31.5566L82.8352 31.6705L82.9487 31.8415L83.0622 31.6705ZM83.6523 22.7129L83.709 22.5989L83.6523 22.4279L83.5388 22.5989L83.6523 22.7129ZM83.8225 40.6966L83.9928 40.4573L84.163 40.5143L83.9247 40.6852H83.8225V40.6966ZM84.3446 39.933C84.5035 39.6253 84.6396 39.386 84.7531 39.2264L84.3446 39.933ZM84.7531 39.2264C84.7531 39.1923 84.7758 39.1467 84.8099 39.1125L84.7531 39.2264ZM87.091 33.1977C86.8186 33.7447 86.5576 34.3031 86.3079 34.873C86.0583 35.4428 85.8086 36.0126 85.5816 36.6052C86.83 34.7704 88.033 32.947 89.2019 31.1235C90.3708 29.3115 91.7894 27.6362 93.4577 26.1204L93.5712 25.5392H93.5145C92.5044 26.7928 91.4603 28.0009 90.3935 29.1747C89.3267 30.3485 88.3848 31.6136 87.5676 32.9811L87.091 33.1977ZM87.2045 31.0323V31.1463C87.318 31.1121 87.3861 31.0437 87.4088 30.9412C87.4315 30.8386 87.4769 30.7588 87.5563 30.679C87.8287 30.1662 88.1464 29.6989 88.521 29.2773C88.8955 28.8442 89.2586 28.4225 89.6331 28.0122C90.0077 27.602 90.3708 27.1803 90.7453 26.7472C91.1198 26.3142 91.4149 25.8469 91.6532 25.3455C91.4944 25.4252 91.3582 25.5164 91.2106 25.6076C91.0744 25.7101 90.9269 25.7899 90.768 25.8697C90.6886 25.9837 90.507 26.2458 90.2119 26.6561C89.9169 27.0663 89.6104 27.4994 89.2813 27.9439C88.9522 28.3883 88.6458 28.7986 88.3734 29.1405C88.101 29.4938 87.9308 29.6875 87.8514 29.7217L87.2045 31.0323ZM93.1513 27.3968H92.913L92.7427 27.6931L92.913 27.6362L93.1513 27.3968ZM93.9117 25.5848L94.0252 25.6988L94.0819 25.5848L93.9684 25.4138L93.9117 25.5848ZM94.9671 29.2773C94.9671 29.2431 94.9785 29.1975 94.9898 29.1633C95.0125 29.1291 95.0238 29.0835 95.0238 29.0493L94.8536 28.9354L94.9671 29.2773ZM96.5446 28.7416L96.7148 28.981L96.8851 28.7416L96.7148 28.5707L96.5446 28.7416ZM97.4185 27.6931H97.4752L97.827 27.5792L97.9405 26.7586L97.5887 27.5222L97.4185 27.6931ZM98.1107 30.3827C98.0313 30.5423 97.8838 30.736 97.6454 30.964L97.7589 30.6676L98.1107 30.3827Z" fill="#003976"/>
<path d="M97.1465 39.8879C97.1465 39.5005 97.1578 39.113 97.1805 38.7141C97.2032 38.3266 97.2713 37.9505 97.3848 37.5972C98.009 35.6484 98.6105 33.768 99.1893 31.9787C99.7681 30.1781 100.71 28.4458 101.992 26.7705C102.651 25.9158 103.4 25.0838 104.24 24.2861C105.079 23.4883 105.965 22.7703 106.918 22.1435C107.871 21.5167 108.881 21.0153 109.948 20.6164C111.015 20.2289 112.116 20.0352 113.239 20.0352C114.635 20.0352 115.725 20.3771 116.474 21.0608C117.234 21.7446 117.938 22.6564 118.607 23.7846C118.88 23.6251 119.186 23.4085 119.538 23.1122C119.89 22.8159 120.253 22.531 120.65 22.2575C121.036 21.984 121.422 21.756 121.785 21.5509C122.159 21.3572 122.488 21.2546 122.806 21.2546C122.965 21.2546 123.045 21.2774 123.045 21.3116C123.045 21.4255 123.011 21.5509 122.931 21.6649C122.852 21.7788 122.818 21.8586 122.818 21.9042C122.818 21.9384 122.829 21.9612 122.852 21.9612C122.874 21.9612 122.886 21.984 122.886 22.0182C122.999 21.9384 123.181 21.8814 123.408 21.8472C123.646 21.813 123.839 21.7902 123.987 21.7902C123.952 21.8244 123.896 21.9042 123.839 21.9954C123.782 22.0979 123.748 22.1663 123.748 22.2005C123.748 22.2803 123.771 22.3145 123.805 22.3145C123.839 22.3145 123.873 22.3031 123.896 22.2803C123.918 22.2575 123.941 22.2461 123.987 22.2461L124.565 22.4854L124.679 23.0097C124.486 23.5225 124.27 24.0012 124.032 24.4684C123.794 24.9357 123.567 25.4029 123.328 25.8702L123.567 25.6309C123.215 26.8845 122.693 28.2977 121.989 29.8818C121.286 31.4659 120.593 33.0728 119.89 34.7139C119.186 36.355 118.573 37.9505 118.051 39.4891C117.529 41.0276 117.268 42.3838 117.268 43.5576C117.268 43.9907 117.325 44.2984 117.438 44.4921C117.552 44.6859 117.665 44.8568 117.79 44.9936C117.904 45.1303 118.017 45.2443 118.142 45.3469C118.255 45.4494 118.312 45.609 118.312 45.8483C117.847 46.3498 117.245 46.6917 116.508 46.8398C115.77 46.9994 115.066 47.0792 114.408 47.0792C113.625 47.0792 113.012 46.9082 112.536 46.5549C112.07 46.2016 111.696 45.7572 111.423 45.2101C111.151 44.6631 110.981 44.0591 110.901 43.3981C110.822 42.7371 110.788 42.0875 110.788 41.4607C110.788 41.1529 110.788 40.868 110.788 40.6059C110.788 40.3552 110.811 40.0703 110.845 39.7512C110.379 40.2184 109.846 40.7883 109.244 41.4493C108.643 42.1103 107.996 42.7713 107.315 43.4095C106.634 44.0591 105.93 44.6061 105.216 45.0506C104.489 45.495 103.808 45.723 103.15 45.723C102.333 45.723 101.641 45.6888 101.085 45.609C100.517 45.5292 100.029 45.3697 99.5978 45.1075C99.1666 44.8568 98.7694 44.5035 98.4062 44.0477C98.0317 43.6032 97.6572 43.022 97.2713 42.3154C97.2373 41.8823 97.2032 41.4721 97.1805 41.0846C97.1578 40.7199 97.1465 40.3096 97.1465 39.8879ZM103.093 28.4002H102.798L102.741 28.4572L103.093 28.4002ZM102.81 37.7112L102.866 37.8821L102.98 37.7112L102.923 37.5972L102.81 37.7112ZM103.218 39.9449C103.525 39.6372 103.763 39.2269 103.922 38.7141C104.081 38.2126 104.228 37.734 104.387 37.3123L103.275 39.0674L103.218 39.9449ZM115.577 26.1779C114.522 26.1779 113.512 26.5996 112.547 27.4429C111.571 28.2863 110.64 29.2778 109.744 30.4288C108.847 31.5799 108.019 32.7423 107.236 33.9161C106.453 35.09 105.738 36.0245 105.079 36.7311C104.966 37.0388 104.807 37.4035 104.614 37.8138C104.421 38.224 104.228 38.6571 104.035 39.1016C103.842 39.546 103.661 39.9791 103.513 40.3894C103.354 40.7997 103.275 41.1416 103.275 41.4151V41.4721C103.627 41.4379 104.194 41.096 104.966 40.4806C105.749 39.8537 106.611 39.056 107.565 38.0759C108.518 37.0958 109.494 36.0245 110.515 34.8507C111.525 33.6768 112.445 32.5372 113.285 31.4203C114.124 30.3034 114.805 29.3119 115.35 28.4344C115.895 27.5569 116.167 26.9187 116.167 26.5312C116.167 26.3374 116.099 26.2349 115.963 26.2121C115.827 26.1893 115.691 26.1779 115.577 26.1779ZM103.388 27.762L103.275 27.933L103.388 28.0469L103.559 27.933L103.388 27.762ZM111.026 22.1321C110.527 22.1321 109.959 22.3031 109.335 22.6336C108.711 22.9641 108.087 23.3629 107.463 23.8302C106.838 24.2975 106.271 24.7989 105.738 25.3232C105.216 25.8474 104.818 26.3147 104.546 26.7021C104.659 26.6679 104.852 26.5312 105.125 26.2919C105.397 26.0525 105.692 25.8018 105.999 25.5283C106.305 25.2548 106.623 24.9813 106.929 24.7077C107.236 24.4342 107.497 24.2405 107.69 24.1265C107.848 24.0467 108.098 23.9214 108.45 23.7504C108.802 23.5795 109.154 23.3857 109.505 23.192C109.857 22.9983 110.175 22.8045 110.47 22.6108C110.765 22.4056 110.947 22.2461 111.026 22.1321ZM106.657 24.0695C106.543 24.1493 106.316 24.3317 105.987 24.628C105.658 24.9243 105.488 25.1066 105.488 25.1864L106.657 24.0695ZM114.76 25.8246C113.557 26.2577 112.501 26.7933 111.605 27.4315C110.708 28.0811 109.903 28.8105 109.188 29.631C108.473 30.4516 107.814 31.3405 107.236 32.2978C106.657 33.2551 106.067 34.258 105.488 35.3179C105.76 34.9304 105.999 34.5316 106.214 34.1213C106.43 33.711 106.668 33.3121 106.941 32.9246C107.599 31.9445 108.2 31.1468 108.745 30.52C109.29 29.8932 109.857 29.3461 110.436 28.8789C111.015 28.4116 111.65 27.9558 112.331 27.4999C113.024 27.044 113.829 26.4856 114.76 25.8246ZM105.726 40.9934C105.84 40.9934 106.101 40.8224 106.487 40.4692C106.872 40.1159 107.326 39.6828 107.826 39.1472C108.336 38.6229 108.881 38.0531 109.46 37.4491C110.039 36.8451 110.572 36.2638 111.037 35.694C111.503 35.1242 111.9 34.6455 112.229 34.2352C112.558 33.825 112.74 33.5401 112.785 33.3805L112.728 33.3235C112.263 33.711 111.718 34.2352 111.094 34.8735C110.47 35.5231 109.835 36.2069 109.199 36.9476C108.552 37.6884 107.928 38.4178 107.304 39.1472C106.68 39.8765 106.146 40.492 105.726 40.9934ZM106.827 27.705C106.941 27.6708 107.156 27.5227 107.474 27.272C107.78 27.0212 108.121 26.7477 108.461 26.4514C108.813 26.1551 109.142 25.8816 109.46 25.5967C109.766 25.3232 110.027 25.1066 110.22 24.9471C109.562 25.2548 108.961 25.665 108.416 26.1437C107.86 26.6338 107.338 27.158 106.827 27.705ZM107.009 30.8619C107.122 30.7821 107.224 30.6909 107.304 30.5998C107.383 30.4972 107.463 30.3946 107.542 30.2806C108.314 29.3461 109.222 28.5256 110.254 27.819C111.287 27.1124 112.206 26.3147 113.024 25.4143C112.592 25.4485 112.093 25.6992 111.503 26.1437C110.924 26.5882 110.334 27.1124 109.755 27.6936C109.176 28.2749 108.632 28.8675 108.121 29.4487C107.61 30.0413 107.236 30.5086 107.009 30.8619ZM110.913 39.2383C110.879 39.2383 110.72 39.3865 110.447 39.6828C110.175 39.9791 109.869 40.3096 109.539 40.6743C109.21 41.0504 108.881 41.4265 108.552 41.8139C108.223 42.2014 107.962 42.4977 107.769 42.6915C108.314 42.1444 108.836 41.586 109.347 41.0162C109.846 40.4578 110.368 39.8651 110.913 39.2383ZM111.083 38.2468C110.697 38.5545 110.345 38.9306 110.027 39.3637C109.721 39.7968 109.403 40.1842 109.097 40.5375C109.21 40.4236 109.381 40.264 109.596 40.0703C109.812 39.8765 110.027 39.66 110.243 39.4207C110.459 39.1813 110.64 38.9648 110.799 38.7483C110.947 38.5317 111.049 38.3608 111.083 38.2468ZM111.378 36.4234L111.14 36.5373L111.083 36.6513L111.253 36.7083L111.491 36.5373L111.378 36.4234ZM112.433 38.2468C112.433 38.4064 112.456 38.4976 112.49 38.5431L112.433 38.2468ZM113.421 36.6057C113.228 37.1186 113.058 37.6086 112.921 38.0987C112.785 38.5887 112.672 39.1016 112.604 39.6486C112.876 39.1813 113.058 38.6799 113.16 38.1557C113.262 37.6314 113.387 37.1072 113.534 36.6057H113.421ZM113.773 35.6712L113.602 35.8422L113.546 36.0131L113.773 35.6712ZM118.21 30.5656C117.858 31.2266 117.472 32.0357 117.041 32.993C116.61 33.9503 116.19 34.9418 115.793 35.9789C115.384 37.016 115.044 38.0303 114.771 39.0218C114.499 40.0133 114.363 40.868 114.363 41.5746V41.8709C114.476 41.6316 114.544 41.3923 114.567 41.1416C114.59 40.8908 114.635 40.6287 114.715 40.3552C115.021 38.6799 115.52 37.016 116.201 35.3749C116.871 33.7338 117.54 32.1269 118.21 30.5656ZM115.929 43.512C116.36 41.5974 116.882 39.717 117.506 37.8594C118.131 36.0017 118.766 34.1441 119.436 32.2636C118.653 34.0985 117.949 35.9333 117.302 37.7682C116.655 39.6144 116.201 41.529 115.929 43.512ZM117.506 27.705C117.427 27.705 117.325 27.819 117.189 28.0241C117.052 28.2407 116.916 28.4686 116.78 28.6965C116.644 28.9359 116.519 29.1638 116.405 29.4031C116.292 29.6424 116.213 29.7906 116.179 29.8704C116.371 29.631 116.632 29.2778 116.962 28.7877C117.279 28.2976 117.461 27.933 117.506 27.705ZM116.689 28.2293C116.576 28.3432 116.462 28.4686 116.371 28.6054C116.269 28.7421 116.224 28.8903 116.224 29.0498L116.576 28.6395L116.689 28.2293ZM116.803 43.512C117.574 40.4692 118.584 37.4947 119.81 34.6113C121.036 31.728 122.216 28.8105 123.34 25.8816C122.908 26.7819 122.318 28.0241 121.558 29.5969C120.797 31.181 120.06 32.8221 119.345 34.5202C118.619 36.2182 118.006 37.8593 117.472 39.4435C116.95 41.0276 116.689 42.2812 116.689 43.2157V43.569L116.803 43.512ZM118.55 30.0413C118.63 29.9274 118.698 29.7792 118.755 29.5969C118.811 29.4259 118.845 29.255 118.845 29.0954L118.55 29.6196V30.0413ZM122.171 22.3145C121.944 22.3487 121.671 22.4968 121.388 22.7475C121.093 22.9983 120.809 23.2946 120.514 23.6251C120.219 23.9556 119.946 24.2975 119.697 24.6508C119.447 25.004 119.243 25.2548 119.084 25.4143H119.379C119.844 24.9129 120.332 24.4114 120.832 23.9214C121.331 23.4313 121.785 22.8957 122.171 22.3145ZM119.368 28.2863C119.447 28.2521 119.572 28.0469 119.742 27.705C119.912 27.3517 120.026 27.1238 120.06 26.9984V26.8845C119.787 26.8845 119.617 27.0668 119.538 27.4429C119.47 27.8076 119.413 28.0925 119.368 28.2863ZM120.366 30.0983L120.128 30.5656L120.298 30.4516L120.366 30.0983ZM120.593 29.5741L120.423 29.8134L120.48 29.9274L120.593 29.688V29.5741ZM122.341 23.7732C122.261 23.7732 122.148 23.8758 121.989 24.0923C121.83 24.3089 121.671 24.5482 121.49 24.8217C121.32 25.0952 121.149 25.3573 120.99 25.6081C120.832 25.8588 120.718 26.0525 120.639 26.1665C120.752 26.0525 120.9 25.8702 121.07 25.6423C121.24 25.4029 121.422 25.1636 121.592 24.9129C121.762 24.6622 121.921 24.4228 122.057 24.2063C122.216 24.0012 122.307 23.853 122.341 23.7732ZM124.509 22.9527C124.395 22.9869 124.179 23.2376 123.862 23.682C123.544 24.1265 123.351 24.4342 123.283 24.5938C123.782 24.0125 124.191 23.4655 124.509 22.9527ZM124.565 23.7732C124.486 23.9328 124.35 24.2405 124.157 24.7077C123.964 25.175 123.782 25.4143 123.635 25.4143L124.565 23.7732Z" fill="#003976"/>
<path d="M33.7515 6.38281L29.6318 24.6173C43.5455 17.5856 33.7515 6.38281 33.7515 6.38281Z" fill="#F39200"/>
<path d="M42.2621 10.0527L29.6309 24.6061C46.0753 23.4551 42.2621 10.0527 42.2621 10.0527Z" fill="#FFB600"/>
<path d="M36.9969 16.1152L29.6201 24.6057C34.6363 22.087 36.577 19.01 36.9969 16.1152Z" fill="#F39200"/>
</svg>
